<?xml version="1.0" standalone="no"?>
<!DOCTYPE svg PUBLIC "-//W3C//DTD SVG 20010904//EN"
 "http://www.w3.org/TR/2001/REC-SVG-20010904/DTD/svg10.dtd">
<svg version="1.0" xmlns="http://www.w3.org/2000/svg"
 width="32.000000pt" height="32.000000pt" viewBox="0 0 32.000000 32.000000"
 preserveAspectRatio="xMidYMid meet">

<g transform="translate(0.000000,32.000000) scale(0.100000,-0.100000)"
fill="#000000" stroke="none">
<path d="M23 274 c8 -9 256 -9 264 0 3 3 -56 6 -132 6 -76 0 -135 -3 -132 -6z"/>
<path d="M1 163 l-1 -113 155 0 155 0 -2 113 c-1 61 -3 94 -5 72 -5 -59 -15
-76 -22 -40 l-6 30 -100 3 c-55 2 -111 0 -124 -3 -23 -6 -23 -9 -17 -67 9 -89
-6 -62 -20 35 l-12 82 -1 -112z m80 20 c1 -17 2 -17 6 0 6 24 25 21 51 -6 28
-30 20 -37 -40 -37 -44 0 -48 2 -48 23 0 37 29 54 31 20z m139 -5 c0 -9 3 -8
10 2 7 12 12 12 21 3 14 -14 -4 -43 -26 -43 -17 0 -38 27 -30 40 9 14 25 13
25 -2z"/>
</g>
</svg>
