<?xml version="1.0" encoding="utf-8"?><!-- Uploaded to: SVG Repo, www.svgrepo.com, Generator: SVG Repo Mixer Tools -->
<svg fill="#000000" width="800px" height="800px" viewBox="0 0 24 24" id="exchange" data-name="Flat Color" xmlns="http://www.w3.org/2000/svg" class="icon flat-color"><path id="secondary" d="M7,18a1,1,0,0,1-.71-.29l-3-3a1,1,0,0,1-.21-1.09A1,1,0,0,1,4,13H20a1,1,0,0,1,0,2H6.41l1.3,1.29a1,1,0,0,1,0,1.42A1,1,0,0,1,7,18Z" style="fill: rgb(44, 169, 188);"></path><path id="primary" d="M20,11H4A1,1,0,0,1,4,9H17.59l-1.3-1.29a1,1,0,0,1,1.42-1.42l3,3a1,1,0,0,1,.21,1.09A1,1,0,0,1,20,11Z" style="fill: rgb(0, 0, 0);"></path></svg>