<?xml version="1.0" encoding="iso-8859-1"?>
<!-- Uploaded to: SVG Repo, www.svgrepo.com, Generator: SVG Repo Mixer Tools -->
<!DOCTYPE svg PUBLIC "-//W3C//DTD SVG 1.1//EN" "http://www.w3.org/Graphics/SVG/1.1/DTD/svg11.dtd">
<svg fill="#000000" version="1.1" id="Capa_1" xmlns="http://www.w3.org/2000/svg" xmlns:xlink="http://www.w3.org/1999/xlink" 
	 width="800px" height="800px" viewBox="0 0 373.506 373.506"
	 xml:space="preserve">
<g>
	<g id="Artwork_55_">
		<g id="Layer_5_55_">
			<g>
				<path d="M222.408,132.529c-19.754,0-32.291,22.025-35.256,22.025c-2.598,0-14.621-22.025-35.265-22.025
					c-20.079,0-36.477,16.559-37.548,36.618c-0.608,11.324,3.047,19.942,8.194,27.752c10.278,15.599,55.229,53.158,64.686,53.158
					c9.653,0,54.198-37.421,64.552-53.158c5.158-7.844,8.797-16.429,8.191-27.752C258.889,149.087,242.49,132.529,222.408,132.529z"
					/>
				<path d="M353.258,164.891h-8.941c-1.582,0-1.65-1.181-1.732-1.77C332.883,94.31,278.4,39.687,209.656,29.775
					c-0.752-0.108-2.258-0.444-2.258-2.444v-7.069c0-11.184-9.066-20.249-20.248-20.249c-11.184,0-20.25,9.065-20.25,20.249v6.819
					c0,2.125-2.338,2.7-3.501,2.878c-68.222,10.4-122.146,64.87-131.712,133.36c-0.073,0.522,0.336,1.571-1.789,1.571h-9.65
					C9.066,164.89,0,173.956,0,185.14s9.066,20.248,20.249,20.248h9.9c1.334,0,1.457,0.989,1.526,1.482
					c9.623,69.188,64.511,124.091,133.691,133.734c0.511,0.071,1.534,0.102,1.534,1.769v10.871c0,11.183,9.066,20.249,20.249,20.249
					c11.184,0,20.25-9.066,20.25-20.249v-10.955c0-1.416,0.906-1.596,1.358-1.658c69.347-9.59,124.368-64.647,133.901-134.014
					c0.055-0.409,0.158-1.229,1.49-1.229h9.107c11.186,0,20.25-9.064,20.25-20.248C373.506,173.958,364.441,164.891,353.258,164.891
					z M309.762,205.389h7.555c1.416,0,1.117,0.986,1.035,1.479c-9.211,55.816-53.305,100.025-109.064,109.406
					c-0.627,0.104-1.887,0.017-1.887-1.149v-5.376c0-11.184-9.066-20.249-20.25-20.249c-11.183,0-20.249,9.065-20.249,20.249v5.209
					c0,1.25-1.403,1.398-2.103,1.279c-55.804-9.484-99.88-53.854-108.921-109.806c-0.056-0.348-0.394-1.043,1.106-1.043h6.763
					c11.184,0,20.249-9.065,20.249-20.248c0-11.184-9.065-20.25-20.249-20.25H56.9c-1.334,0-1.042-0.939-0.964-1.406
					c9.202-55.938,53.432-100.231,109.34-109.522c0.54-0.09,1.625-0.068,1.625,1.244v8.553c0,11.183,9.066,20.249,20.25,20.249
					c11.183,0,20.248-9.066,20.248-20.249v-8.928c0-1.25,0.879-0.992,1.316-0.92c55.9,9.154,100.189,53.29,109.572,109.113
					c0.104,0.621,0.361,1.866-1.139,1.866h-7.389c-11.184,0-20.248,9.066-20.248,20.25
					C289.512,196.323,298.578,205.389,309.762,205.389z"/>
			</g>
		</g>
	</g>
</g>
</svg>