<?xml version="1.0" standalone="no"?>
<!DOCTYPE svg PUBLIC "-//W3C//DTD SVG 20010904//EN"
 "http://www.w3.org/TR/2001/REC-SVG-20010904/DTD/svg10.dtd">
<svg version="1.0" xmlns="http://www.w3.org/2000/svg"
 width="32.000000pt" height="32.000000pt" viewBox="0 0 32.000000 32.000000"
 preserveAspectRatio="xMidYMid meet">

<g transform="translate(0.000000,32.000000) scale(0.100000,-0.100000)"
fill="#000000" stroke="none">
<path d="M0 160 l0 -160 160 0 160 0 0 160 0 160 -160 0 -160 0 0 -160z m128
98 c3 -29 32 -40 32 -13 0 8 7 15 15 15 8 0 15 7 15 15 0 11 11 15 40 15 39 0
40 0 40 -37 0 -30 -7 -43 -32 -65 l-33 -28 33 -28 c25 -22 32 -35 32 -65 0
-37 -1 -37 -40 -37 -29 0 -40 4 -40 15 0 8 -7 15 -15 15 -8 0 -15 7 -15 15 0
27 -29 16 -32 -12 -3 -25 -7 -28 -43 -28 l-40 0 -3 114 c-1 63 0 121 3 128 3
10 17 13 42 11 33 -3 38 -7 41 -30z"/>
</g>
</svg>
