<?xml version="1.0" encoding="iso-8859-1"?>
<!-- Uploaded to: SVG Repo, www.svgrepo.com, Generator: SVG Repo Mixer Tools -->
<svg height="800px" width="800px" version="1.1" id="Layer_1" xmlns="http://www.w3.org/2000/svg" xmlns:xlink="http://www.w3.org/1999/xlink" 
	 viewBox="0 0 512 512" xml:space="preserve">
<g>
	<path style="fill:#2D527C;" d="M256.001,313.115c-61.465,0-111.469-50.005-111.469-111.469v-90.176
		C144.53,50.005,194.536,0,256.001,0c34.87,0,67.121,15.984,88.487,43.854c6.172,8.052,11.214,16.882,14.982,26.243
		c2.949,7.323-0.598,15.65-7.922,18.598c-7.323,2.949-15.65-0.599-18.598-7.922c-2.802-6.96-6.554-13.53-11.151-19.526
		c-15.91-20.755-39.893-32.658-65.797-32.658c-45.701,0-82.88,37.181-82.88,82.88v90.175c0,45.701,37.18,82.88,82.88,82.88
		s82.88-37.181,82.88-82.88c0-7.893,6.4-14.294,14.294-14.294s14.294,6.401,14.294,14.294
		C367.47,263.109,317.465,313.115,256.001,313.115z"/>
	<path style="fill:#2D527C;" d="M256.001,372.459c-94.187,0-170.814-76.625-170.814-170.812v-45.089
		c0-7.893,6.4-14.294,14.294-14.294s14.294,6.401,14.294,14.294v45.089c0,78.422,63.802,142.224,142.225,142.224
		c7.895,0,14.294,6.401,14.294,14.294S263.896,372.459,256.001,372.459z"/>
	<path style="fill:#2D527C;" d="M333.153,352.1c-4.973,0-9.803-2.597-12.439-7.23c-3.902-6.863-1.504-15.59,5.358-19.493
		c44.506-25.315,72.152-72.726,72.152-123.732v-45.089c0-7.893,6.4-14.294,14.294-14.294s14.294,6.401,14.294,14.294v45.089
		c0,61.262-33.186,118.196-86.606,148.582C337.978,351.497,335.549,352.1,333.153,352.1z"/>
</g>
<path style="fill:#CEE8FA;" d="M158.824,156.558v45.087c0,53.447,43.729,97.176,97.175,97.176l0,0
	c53.447,0,97.175-43.729,97.175-97.176v-45.087H158.824L158.824,156.558z"/>
<g>
	<path style="fill:#2D527C;" d="M256.001,313.115c-61.465,0-111.469-50.005-111.469-111.469v-45.087
		c0-7.893,6.4-14.294,14.294-14.294h194.351c7.895,0,14.294,6.401,14.294,14.294v45.087
		C367.47,263.109,317.465,313.115,256.001,313.115z M173.119,170.851v30.793c0,45.701,37.18,82.88,82.88,82.88
		s82.88-37.181,82.88-82.88v-30.793H173.119z"/>
	<path style="fill:#2D527C;" d="M256.001,476.391c-7.895,0-14.294-6.401-14.294-14.294V358.164c0-7.893,6.4-14.294,14.294-14.294
		c7.895,0,14.294,6.401,14.294,14.294v103.933C270.295,469.992,263.896,476.391,256.001,476.391z"/>
</g>
<path style="fill:#CEE8FA;" d="M341.238,497.706H170.762c-17.616,0-31.898-14.282-31.898-31.898l0,0
	c0-17.616,14.282-31.898,31.898-31.898h170.477c17.616,0,31.898,14.282,31.898,31.898l0,0
	C373.136,483.424,358.855,497.706,341.238,497.706z"/>
<path style="fill:#2D527C;" d="M341.238,512H170.762c-25.47,0-46.192-20.721-46.192-46.191s20.723-46.191,46.192-46.191h170.477
	c25.47,0,46.192,20.721,46.192,46.191S366.709,512,341.238,512z M170.762,448.205c-9.707,0-17.604,7.896-17.604,17.602
	c0,9.706,7.896,17.602,17.604,17.602h170.477c9.707,0,17.604-7.896,17.604-17.602c0-9.706-7.896-17.602-17.604-17.602H170.762z"/>
</svg>