<?xml version="1.0" standalone="no"?>
<!DOCTYPE svg PUBLIC "-//W3C//DTD SVG 20010904//EN"
 "http://www.w3.org/TR/2001/REC-SVG-20010904/DTD/svg10.dtd">
<svg version="1.0" xmlns="http://www.w3.org/2000/svg"
 width="32.000000pt" height="32.000000pt" viewBox="0 0 32.000000 32.000000"
 preserveAspectRatio="xMidYMid meet">

<g transform="translate(0.000000,32.000000) scale(0.100000,-0.100000)"
fill="#000000" stroke="none">
<path d="M93 300 c-46 -20 -79 -64 -89 -118 -8 -39 17 -111 47 -138 17 -16 22
-16 30 -4 5 8 7 35 4 58 -5 32 -2 48 9 60 8 10 16 40 18 67 4 61 22 66 26 7 2
-23 7 -40 13 -37 5 4 12 -1 15 -9 3 -9 11 -13 16 -10 6 4 14 1 18 -6 6 -9 13
-5 25 14 18 28 35 34 35 14 0 -7 -25 -51 -55 -98 -30 -46 -55 -88 -55 -92 0
-15 35 -8 80 15 48 24 90 88 90 137 0 49 -42 113 -90 138 -54 27 -82 27 -137
2z"/>
</g>
</svg>
