<?xml version="1.0" standalone="no"?>
<!DOCTYPE svg PUBLIC "-//W3C//DTD SVG 20010904//EN"
 "http://www.w3.org/TR/2001/REC-SVG-20010904/DTD/svg10.dtd">
<svg version="1.0" xmlns="http://www.w3.org/2000/svg"
 width="32.000000pt" height="32.000000pt" viewBox="0 0 32.000000 32.000000"
 preserveAspectRatio="xMidYMid meet">

<g transform="translate(0.000000,32.000000) scale(0.100000,-0.100000)"
fill="#000000" stroke="none">
<path d="M0 160 l0 -140 26 0 26 0 -4 130 c-4 165 7 175 32 30 6 -36 16 -86
22 -112 l10 -48 48 0 48 0 10 48 c6 26 16 76 22 112 25 145 36 135 32 -30 l-4
-130 26 0 26 0 0 140 0 140 -50 0 c-27 0 -50 -1 -50 -2 0 -17 -50 -251 -54
-256 -3 -3 -9 -3 -12 0 -4 5 -54 239 -54 256 0 1 -22 2 -50 2 l-50 0 0 -140z"/>
</g>
</svg>
