<?xml version="1.0" encoding="iso-8859-1"?>
<!-- Uploaded to: SVG Repo, www.svgrepo.com, Generator: SVG Repo Mixer Tools -->
<svg height="800px" width="800px" version="1.1" id="Layer_1" xmlns="http://www.w3.org/2000/svg" xmlns:xlink="http://www.w3.org/1999/xlink" 
	 viewBox="0 0 512.002 512.002" xml:space="preserve">
<path style="fill:#FACF23;" d="M511.421,376.446c-1.083-2.832-3.542-4.911-6.515-5.506c-44.363-8.872-70.755-34.219-85.083-53.92
	c-16.858-23.179-22.56-45.457-22.589-52.14c2.078-3.065,16.228-5.777,23.865-7.241c13.559-2.599,27.581-5.287,35.348-13.053
	c6.516-6.518,9.509-15.947,8.004-25.226c-1.671-10.291-8.463-18.895-19.127-24.226c-14.784-7.394-39.716,2.21-55.933,10.196
	c5.161-14.87,7.842-30.62,7.842-46.441c0-77.888-63.366-141.253-141.253-141.253S114.726,81,114.726,158.888
	c0,15.821,2.682,31.571,7.842,46.441c-16.217-7.984-41.147-17.588-55.933-10.196c-10.664,5.332-17.456,13.936-19.127,24.226
	c-1.505,9.279,1.488,18.708,8.004,25.226c7.767,7.767,21.788,10.454,35.348,13.053c7.638,1.464,21.787,4.177,23.865,7.241
	c-0.029,6.683-5.731,28.961-22.589,52.14c-14.327,19.702-40.718,45.048-85.083,53.92c-6.248,1.25-9.165,8.842-5.331,13.954
	c1.136,1.514,27.145,35.525,71.251,38.62l6.891,20.674c1.667,5.001,7.575,7.457,12.304,5.114c0.309-0.151,31.16-15.1,52.972-0.559
	c2.135,1.424,4.327,2.905,6.577,4.424c25.742,17.387,60.997,41.201,104.26,41.201s78.517-23.813,104.26-41.201
	c2.25-1.52,4.442-3.001,6.577-4.424c21.816-14.544,52.663,0.408,52.952,0.551c4.741,2.37,10.652-0.09,12.324-5.104l6.891-20.674
	c44.107-3.094,70.116-37.105,71.251-38.62C512.056,382.468,512.503,379.279,511.421,376.446z"/>
<path style="fill:#FFA929;" d="M114.727,158.888c0,15.821,2.682,31.571,7.842,46.441c-16.217-7.984-41.147-17.588-55.933-10.196
	c-10.664,5.332-17.456,13.936-19.127,24.226c-1.505,9.279,1.488,18.708,8.004,25.226c7.767,7.767,21.788,10.454,35.348,13.053
	c7.638,1.464,21.787,4.177,23.865,7.241c-0.029,6.683-5.731,28.961-22.589,52.14c-14.327,19.702-40.718,45.048-85.083,53.92
	c-6.248,1.25-9.165,8.842-5.331,13.954c0.69,0.919,10.573,13.826,28.099,24.514c73.488-33.64,129.047-70.161,129.047-162.237
	c0-52.97-17.657-70.627,0-132.425c11.241-39.341,51.098-75.099,78.586-95.896C168.291,27.952,114.727,87.28,114.727,158.888z"/>
</svg>